<?xml version="1.0" encoding="utf-8"?>
<!-- Generator: Adobe Illustrator 25.2.0, SVG Export Plug-In . SVG Version: 6.00 Build 0)  -->
<svg version="1.1" id="Layer_1" xmlns="http://www.w3.org/2000/svg" xmlns:xlink="http://www.w3.org/1999/xlink" x="0px" y="0px"
	 viewBox="0 0 660 718.8" style="enable-background:new 0 0 660 718.8;" xml:space="preserve">
<style type="text/css">
	.st0{fill:#FFFFFF;}
</style>
<path class="st0" d="M328.7,0.1c67,0,134,0,201-0.1c2.5-0.2,4.9,1,6.3,3.1c40.9,53.6,81.9,107.2,122.9,160.8c1,1.7,1.4,3.6,1,5.5
	c-6.7,33.6-12.7,67.4-20.6,100.7c-15.8,66.7-38.2,131.2-69.7,192.2c-33.5,64.8-78.2,123.2-132.1,172.3
	c-32.6,29.9-67.8,56.7-103.3,83.1c-1.3,1.3-3.4,1.4-4.8,0.3c-57.5-34.7-109-76.8-153.3-127.5C118.8,525,77.4,450.3,48,368.7
	C32.3,325.6,20.1,281.2,11.5,236C7.3,214,3.8,191.8,0,169.7c-0.1-1.4,0.3-2.8,1.1-3.9c40.2-54.6,80.4-109,120.6-163.5
	c1.5-2,3.1-2.3,5.2-2.3C194.2,0.1,261.4,0.1,328.7,0.1z M328.9,22.1c-63,0-126,0-189-0.1c-3.2-0.3-6.3,1.3-8.1,4
	C96.4,74.2,60.9,122.3,25.3,170.4c-1.5,1.9-2.1,4.3-1.6,6.7c0.3,1.7,0.5,3.3,0.8,5c5.5,34.6,12.2,68.9,21,102.8
	c17.2,66.5,41.4,130.2,75.6,189.9c51,89.3,120,161.4,206.9,216.2c1.9,1.2,3.2,1.3,5.1-0.1c33.9-25.5,67.1-51.8,98-81
	c43.4-40.8,80.2-88.1,109.1-140.2c34-61.2,57.5-126.5,74.9-194.1c8.5-33.1,15.5-66.5,21.3-100.2c0.5-2.6,0.3-4.5-1.4-6.6
	c-36.7-47.7-73.2-95.5-109.7-143.4c-1.6-2.4-4.3-3.8-7.2-3.6C454.9,22.1,391.9,22.1,328.9,22.1L328.9,22.1z"/>
<path class="st0" d="M302.6,496.5c-14.3,1-27.4-2-39.1-10.2c-7.1-5.1-13.1-11.7-17.6-19.2c10.5-5.7,21.2-8.7,33-7.5
	c11.6,1.2,21.5,6.4,31,13.1c-6-14.9-8.1-29.9-3.5-45.4c3.4-11.5,9.7-21.2,18.2-30.2c9.8,10.1,16.3,21.6,18.4,35.5s-1,26.8-6.1,39.8
	c20.2-15.1,41.2-17.9,63.9-5.4c-6.3,10-14.1,17.9-24.4,23.2s-21.2,6.8-32.9,5.4c5.2,3.1,10.2,5.6,14.6,8.9
	c11.7,8.6,16.4,21,13.3,33.6c-0.5,2.2-1.3,2.9-3.6,2.8c-13.5-1-23.5-8.1-31.2-18.4c-5.3-7.1-9.5-15.1-14.2-22.7
	c-0.2,0.5-0.8,1.6-1.3,2.7c-5.5,11.9-12.7,22.6-23.2,30.7c-6.2,4.8-13.7,7.9-21.5,8.9c-2.5,0.3-3.7-0.3-4.2-2.9
	c-1.8-10.1,0.7-18.9,7.3-26.7c5.5-6.5,12.4-11.1,20.1-14.6C300.5,497.5,301.5,497,302.6,496.5z"/>
<path class="st0" d="M214.8,496.3c-6.2-4.5-11.5-8.2-17-12.2l-17,12.2c2.3-7.1,4.3-13.3,6.4-19.7l-16-11.6l0.2-0.8
	c5.4,0,10.7-0.2,16,0.1c3.1,0.2,4.4-0.9,5.2-3.8c1.4-5.1,3.2-10,5.2-15.8c1.9,5.8,3.9,10.8,5.2,15.9c0.8,3.1,2.3,3.9,5.3,3.7
	c5.4-0.2,10.8,0,16.2,0.6l-16.1,11.7C210.4,482.8,212.4,489,214.8,496.3z"/>
<path class="st0" d="M489.1,465l-16,11.5c2,6.2,4,12.5,6.3,19.8l-16.9-12.1l-17,12.1l6.4-19.7L436,465l0.1-0.8h10.8
	c9.2,0,9.2,0,12.1-8.8l3.6-10.8c2,6.1,3.8,11.3,5.4,16.6c0.7,2.4,1.8,3.2,4.3,3.1c5.5-0.2,11.1-0.1,16.6-0.1
	C488.9,464.4,489,464.7,489.1,465z"/>
<path class="st0" d="M483.9,408.3c14.8-11.5,28.9-7.2,38.7,0c-8.2,7.4-17.1,12.2-28.5,9.7c-10.3-2.4-17.5-8.2-20.1-18.9
	c-2.8-11.6,1.7-20.7,9.3-28.9C490.4,379.4,495.2,393.2,483.9,408.3z"/>
<path class="st0" d="M543,380.1c-10.5,15.1-26.1,16.4-36.9,8.4c-10.8-8-13-23-2.8-36.1c8.1,8.3,13.2,18.7,5.7,33.5
	C518.8,375.1,530.2,374.5,543,380.1z"/>
<path class="st0" d="M538,274c13.1,5.7,20.5,14.4,18.9,29.2c4.6-14.2,15-19.3,29.2-19.5c-2.1,8.9-5.8,16.2-14,20.1
	c-9.2,4.4-18.1,4.5-26.3-2.7S536,284.6,538,274z"/>
<path class="st0" d="M518,328.1c11,8.7,16.2,18.8,10.6,33c12.7-13.1,20.3-15.6,33.4-11.2c-4.2,7.8-9.7,13.9-18.7,15.6
	c-9.8,1.9-18.4-0.2-24.5-9.1C512.6,347.3,513.7,338.1,518,328.1z"/>
<path class="st0" d="M529.9,301.6c11.7,7.4,17.6,16.8,14.5,30.9c7.1-12.7,17.8-16.2,31.6-13.9c-3.9,9.4-9.6,16.4-19.7,18.4
	c-9.5,1.9-17.7-0.4-23.7-8.6C526.3,320.1,526.7,311.3,529.9,301.6z"/>
<path class="st0" d="M541.8,251.6c11.8,0.8,19.1,7.4,22.8,21.4c1.5-13.8,9.2-20.4,21.2-22.9c1.9,12.4-8.3,24.9-20.9,26.1
	C553.3,277.3,543,266.4,541.8,251.6z"/>
<path class="st0" d="M540.2,193.1c11.4,0.7,17.8,6.2,21.2,17.8c0.4-11.8,7.2-18,17.8-21c2.4,11-5.6,22.1-17.4,24.2
	C552,216,541.9,206.3,540.2,193.1z"/>
<path class="st0" d="M583.1,219c1.5,12.5-6.2,23-17.3,24.5c-10.6,1.4-19.9-7.2-21.8-20.4c8.7-1.8,17.7,5.6,21,17.2
	c0.8-3.1,1.1-6.5,2.6-9.3c1.6-2.9,3.9-5.5,6.6-7.5C576.6,221.6,579.9,220.5,583.1,219z"/>
<path class="st0" d="M561.2,197.8c-10.5-5.3-14.2-17-9-27.9C562.6,175.2,566.3,186.4,561.2,197.8z"/>
<path class="st0" d="M176.1,410c-10.6-14.3-6.5-28.2,0.8-37.6c11.8,9.3,14.3,29.9,3.6,40.1c-11,10.4-27.9,12.3-42.7-2.5
	c5.9-4.1,12.3-6.7,19.4-6.9C164.2,402.8,170.3,406,176.1,410z"/>
<path class="st0" d="M84.4,320.9c11.9-2.5,23.4-0.2,31.5,13.4c-3-13.8,2.7-23.3,14.4-30.6c3,8.4,3.8,16.4-0.8,24.1
	c-5.3,8.8-13,13.1-23.4,11.6C95.1,337.8,88.7,330.9,84.4,320.9z"/>
<path class="st0" d="M74.2,285.9c14.3-0.1,24.4,5.2,29.2,19.1c-1.5-14.7,6-23.3,18.8-28.9c2,9.5,0.9,17.9-5.6,24.9
	c-6.9,7.5-15.3,9.7-25,6.3C81.6,303.8,76.8,296.1,74.2,285.9z"/>
<path class="st0" d="M98.1,351.8c13.2-3.6,24-1.5,32.5,9.8c-4.1-13.5,1.2-23.2,11.6-31.4c4,8.8,5.4,17.4,0.6,26.2
	c-5.3,9.5-13.6,12.8-24.1,11.5C109,366.6,103,360.3,98.1,351.8z"/>
<path class="st0" d="M117.3,382.3c11.5-5.6,23.3-5.8,34.1,5.4c-2.4-5.6-4.6-11.2-3.3-17.5s4.6-11.3,9.1-16.2
	c5.5,8,8.2,16.3,4.8,25.7s-9.9,14.2-19.7,15.1C131.4,395.7,123.6,390.7,117.3,382.3z"/>
<path class="st0" d="M96.4,272.3c2.8-11.2,9-16.9,22.2-19c-0.5,8.5-2.9,15.8-10.3,20.8c-7.9,5.2-15.8,5.1-23.6,0s-10.2-13-10.5-22.2
	c5.8,1.2,11.2,2.9,14.6,7.2C91.9,263.2,94,268.2,96.4,272.3z"/>
<path class="st0" d="M116.3,224.4c-0.8,12.7-10.3,22.5-21.1,21.1c-9.6-1.2-19.6-8.7-18.1-23.8c10.3,1.2,16.6,8.5,18.2,20.9
	C97.5,231.1,105,225.8,116.3,224.4z"/>
<path class="st0" d="M80.8,192.2c10.2,1.5,15.9,8,18,20.7c4.3-12.2,11.2-18.1,21-17.7c-0.2,11.9-10.2,22-20.8,21
	C87.7,215.3,79.2,204.1,80.8,192.2z"/>
<path class="st0" d="M99.3,199.9c-5.5-10.7-2.3-21,8.5-28.1C113.7,182,109.8,194,99.3,199.9z"/>
<path class="st0" d="M328.8,136.5l-3.5,0.3v188.6c-21.2-6-43.1-8.9-65.1-8.6c-21.9,0.4-43.7,4.2-64.4,11.3c-0.1-1.5-0.2-2.4-0.3-3.3
	c-0.8-42.3-1.5-84.5-2.3-126.8c-0.3-18-0.8-36.1-1.3-54.1c-0.1-2.6,0.5-3.7,3.3-4.4c22.9-6,46-11,69.6-13.3
	c17.4-1.7,34.8-2.4,51.7,3.4c4.4,1.5,8.5,3.9,12.8,5.8L328.8,136.5z M307.1,295.4c-33.3-14.3-64.9-5.5-96.6,6c0.8,1.9,1.4,3.4,2.1,5
	c30.4-10.8,60.6-19.5,92.3-6.1L307.1,295.4z M307.1,275c-33.4-14.3-64.9-5.4-96.5,5.9c0.4,1.1,0.6,2.1,0.9,3c0.2,0.7,0.6,1.3,1,2.2
	c30.2-10.7,60.5-19.6,92.3-6L307.1,275z M212.4,265.7c30.6-10.9,60.8-19.7,92.5-6.1l2.1-4.7c-25.9-12.4-58-9.2-96.3,5.9L212.4,265.7
	z M212.8,224.7c30.1-10.7,60.3-19.6,92.1-6l2.3-5c-33.4-14.2-65-5.5-96.5,5.9c0.5,1.5,0.9,2.8,1.4,4
	C212.2,224.1,212.5,224.4,212.8,224.7L212.8,224.7z M307.2,234.2c-33.5-14.3-65-5.5-96.7,6l2,5c30.5-10.8,60.6-19.6,92.3-6.1
	C305.7,237.5,306.4,236.1,307.2,234.2L307.2,234.2z M307.1,152.6c-33.5-14.1-65-5.4-96.6,6c0.7,1.8,1.2,3.3,1.9,5.1
	c30.4-10.7,60.6-19.7,92.4-6.1C305.7,155.8,306.4,154.4,307.1,152.6L307.1,152.6z M212.4,184.1c30.3-10.7,60.6-19.7,92.5-6.1
	l2.1-4.9c-13.2-5.9-27.6-8.4-42-7.3c-18.9,1.2-36.8,6.6-54.4,13.3C211.3,180.9,211.9,182.4,212.4,184.1L212.4,184.1z M307,193.8
	c-18-12.1-67-9.1-96.3,5.8l1.8,4.8c30.4-10.8,60.7-19.7,92.5-6.1L307,193.8z"/>
<path class="st0" d="M333.2,137.4l-4-0.6c9.1-5.5,19.1-9.3,29.5-11.1c20.9-3.7,41.1,0.1,61.2,5.4c13.4,3.6,26.6,7.7,40,11.5
	c2.2,0.6,3,1.5,3,4c0.1,59.6,0.3,119.2,0.5,178.8c0,1-0.1,1.9-0.2,3.4c-43.2-9.5-86.4-13.5-130.1-1.8L333.2,137.4z M444.7,301.8
	c-31.8-11.4-63.3-20.2-96.5-5.9l2.2,4.8c1.5-0.6,3-1.2,4.5-1.6c6.8-1.6,13.5-3.8,20.4-4.7c15.7-1.9,31,1,46.1,5.4
	c7.1,2.1,14.2,4.5,21.4,6.8c0.3-0.5,0.6-1.1,0.9-1.7C443.9,304.2,444.2,303.3,444.7,301.8z M444.7,240.7
	c-31.9-11.4-63.4-20.2-96.5-5.9c0.6,1.5,1,2.5,1.5,3.4c0.2,0.4,0.5,0.8,0.8,1.1c0.3,0,0.5,0,0.8,0c0.7-0.2,1.4-0.5,2-0.8
	c11.2-4.3,22.9-6.8,34.8-5.6c11.2,1.1,22.4,3.5,33.4,5.9c7.2,1.6,14.2,4.4,21.5,6.8L444.7,240.7z M444.7,281.5
	c-31.8-11.4-63.3-20.2-96.6-5.9c0.9,1.8,1.6,3.3,2.3,4.7c3.5-1.2,6.6-2.4,9.9-3.3c18.7-5.5,37.3-3.8,55.8,1.2
	c8.9,2.4,17.7,5.3,26.9,8.2L444.7,281.5z M444.5,200.4c-26.5-14.9-76.8-18.1-96.3-6l2.2,4.5l4-1.5c11.1-4.2,23-6,34.8-5.2
	c12.6,0.9,25.1,3.4,37.1,7.4c5.5,1.7,10.9,3.6,16.5,5.5L444.5,200.4z M350.4,260.1l4.6-1.7c10.5-3.9,21.6-5.6,32.7-5.1
	c11.5,0.5,22.8,2.6,33.8,6c7.1,2.2,14.2,4.5,21.4,6.8c0.4-0.9,0.8-1.7,1.1-2.5s0.4-1.6,0.6-2.5c-31.6-11.3-63.1-20.1-96.3-5.8
	C348.9,256.9,349.6,258.4,350.4,260.1L350.4,260.1z M350.5,219.2c0.9-0.3,1.7-0.6,2.5-0.9c10.2-4.1,21.2-6.1,32.2-5.9
	c12.3,0.3,24.5,2.3,36.3,6c7.1,2.1,14.1,4.5,21.3,6.8c0.4-1,0.8-1.7,1.1-2.5s0.4-1.4,0.7-2.5c-31.6-11.3-63.1-20.1-96.4-5.8
	c0.5,1.3,0.9,2.3,1.3,3.2C349.8,218.1,350.2,218.7,350.5,219.2L350.5,219.2z M350.4,178.6c21.6-9.4,43.3-8.3,65-2.6
	c9.2,2.4,18.1,5.5,27.5,8.4c0.5-1.5,1.1-3,1.7-4.9c-31.7-11.5-63.3-20.2-96.6-5.9L350.4,178.6z M350.4,158.2c12.5-5.2,25.1-8,38-6.7
	c11.2,1.1,22.4,3.5,33.4,6c7.1,1.6,14,4.4,21,6.6c0.4-1,0.8-1.7,1.1-2.5s0.4-1.5,0.7-2.5c-31.7-11.4-63.2-20.1-96.4-5.9L350.4,158.2
	z"/>
<path class="st0" d="M191.4,333.9c8.2-2.4,15.7-4.8,23.2-6.7c22.9-5.9,46.7-7.6,70.2-5.1c14.6,1.5,29.1,4.4,43.2,8.7
	c1.9,0.6,4,0.6,5.9,0.1c22.6-5.9,46-8.3,69.4-7.1c20.8,1,41.3,4.5,61.6,8.9c1.2,0.2,2.3,0.4,4,0.7V165c7.4,0,13.3,4.9,14.3,11.9
	c0.3,1.8,0.4,3.6,0.4,5.4c0,45.4,0,90.9,0,136.3c0,9.2-4,15-11.8,16.8c-1.4,0.3-2.9,0.4-4.3,0.3H192.7c-9.1,0-15-5.4-15.9-14.5
	c-0.1-1.1-0.1-2.2-0.1-3.3c0-45.1,0-90.1,0.1-135.2c0-3.6,0.7-7.2,2-10.5c1.4-3.7,4.8-5.9,9.1-7.2
	C189.1,221.5,190.2,277.6,191.4,333.9z"/>
</svg>
