<svg id="Layer_1" data-name="Layer 1" xmlns="http://www.w3.org/2000/svg" viewBox="0 0 659.95 718.85"><defs><style>.cls-1{fill:#fff;}</style></defs><path d="M392.88,344.28q100.51,0,201-.07a7,7,0,0,1,6.28,3.13q61.41,80.42,122.86,160.8a7.66,7.66,0,0,1,1,5.55c-6.71,33.59-12.67,67.36-20.58,100.67-15.84,66.69-38.17,131.15-69.69,192.22A613.94,613.94,0,0,1,501.6,978.9c-32.65,29.91-67.77,56.74-103.26,83.12a3.65,3.65,0,0,1-4.81.26c-57.55-34.74-109-76.83-153.33-127.47-57.32-65.46-98.66-140.17-128.06-221.75A877.19,877.19,0,0,1,75.69,580.22c-4.22-22-7.73-44.22-11.44-66.35a5.81,5.81,0,0,1,1.12-3.94q60.24-81.72,120.54-163.4c1.47-2,3.07-2.28,5.22-2.28Q292,344.31,392.88,344.28Zm.21,22q-94.51,0-189-.08a8.79,8.79,0,0,0-8.07,4q-53.1,72.31-106.49,144.44a8.27,8.27,0,0,0-1.62,6.71c.27,1.67.49,3.35.76,5,5.52,34.57,12.22,68.89,21,102.8,17.24,66.47,41.4,130.19,75.56,189.92Q261.76,953,392.09,1035.31c1.94,1.23,3.24,1.29,5.1-.1,33.88-25.52,67.14-51.78,98-81A580.88,580.88,0,0,0,604.34,814.06c34-61.2,57.5-126.46,74.86-194.08,8.49-33.09,15.49-66.49,21.26-100.16.45-2.59.27-4.45-1.4-6.63q-55-71.61-109.73-143.39a8,8,0,0,0-7.2-3.58Q487.62,366.36,393.09,366.29Z" transform="translate(-64.21 -344.21)"/><path d="M366.77,840.69c-14.29.95-27.41-2-39.13-10.2A64.77,64.77,0,0,1,310,811.3c10.48-5.74,21.21-8.72,33-7.48,11.65,1.21,21.52,6.43,31,13.11-6-14.86-8.14-29.87-3.53-45.37,3.41-11.5,9.71-21.25,18.2-30.15,9.78,10.1,16.31,21.56,18.43,35.46s-.95,26.82-6.06,39.83c20.19-15.11,41.21-17.91,63.87-5.38-6.32,10-14.08,17.93-24.38,23.22s-21.16,6.76-32.93,5.43c5.22,3.14,10.18,5.64,14.6,8.87,11.72,8.57,16.4,21,13.29,33.63-.55,2.24-1.33,2.93-3.64,2.76-13.46-1-23.45-8.12-31.17-18.39-5.33-7.09-9.48-15.07-14.18-22.7-.25.49-.81,1.58-1.32,2.69-5.48,11.93-12.67,22.58-23.2,30.68a44.36,44.36,0,0,1-21.5,8.93c-2.49.34-3.74-.3-4.21-2.93-1.81-10.09.73-18.94,7.3-26.68,5.5-6.5,12.44-11.07,20.11-14.61C364.73,841.74,365.74,841.2,366.77,840.69Z" transform="translate(-64.21 -344.21)"/><path d="M279,840.49c-6.21-4.46-11.5-8.25-17-12.19l-17,12.15c2.29-7.06,4.3-13.27,6.38-19.72l-16-11.59.16-.76c5.35,0,10.71-.2,16,.07,3.09.16,4.43-.87,5.24-3.84,1.38-5.07,3.24-10,5.17-15.81,1.94,5.85,3.85,10.8,5.19,15.9.81,3.08,2.32,3.87,5.29,3.74a96.6,96.6,0,0,1,16.18.63l-16.09,11.66C274.6,827,276.63,833.22,279,840.49Z" transform="translate(-64.21 -344.21)"/><path d="M553.29,809.2l-15.95,11.49c2,6.22,4,12.55,6.35,19.75l-16.93-12.13-17,12.13,6.41-19.69-16-11.57.09-.81h10.84c9.16,0,9.16,0,12.06-8.8l3.57-10.84c2,6.11,3.81,11.31,5.36,16.59.69,2.38,1.8,3.22,4.33,3.13,5.52-.21,11.06-.07,16.59-.07C553.13,808.65,553.21,808.93,553.29,809.2Z" transform="translate(-64.21 -344.21)"/><path d="M548.08,752.49c14.85-11.5,28.92-7.23,38.73,0-8.19,7.42-17.08,12.25-28.49,9.69C548,759.81,540.8,754,538.18,743.28c-2.83-11.56,1.71-20.65,9.29-28.93C554.63,723.59,559.45,737.42,548.08,752.49Z" transform="translate(-64.21 -344.21)"/><path d="M607.21,724.26c-10.49,15.11-26.12,16.38-36.93,8.41s-13-23-2.85-36.14c8.12,8.31,13.19,18.71,5.74,33.54C583,719.34,594.42,718.71,607.21,724.26Z" transform="translate(-64.21 -344.21)"/><path d="M602.17,618.24c13.07,5.71,20.47,14.4,18.87,29.19,4.61-14.2,15-19.28,29.25-19.5-2.07,8.87-5.8,16.16-14,20.1-9.18,4.39-18.12,4.47-26.26-2.72S600.19,628.86,602.17,618.24Z" transform="translate(-64.21 -344.21)"/><path d="M582.25,672.27c11,8.71,16.15,18.79,10.61,33,12.69-13.07,20.34-15.59,33.37-11.17-4.17,7.83-9.73,13.91-18.7,15.63-9.85,1.89-18.41-.22-24.47-9.08C576.81,691.51,577.91,682.28,582.25,672.27Z" transform="translate(-64.21 -344.21)"/><path d="M594.12,645.85c11.71,7.38,17.63,16.83,14.47,30.88,7.09-12.67,17.85-16.24,31.6-13.86-3.9,9.38-9.64,16.37-19.73,18.36-9.48,1.87-17.68-.39-23.73-8.56C590.55,664.32,590.9,655.47,594.12,645.85Z" transform="translate(-64.21 -344.21)"/><path d="M606,595.76c11.85.79,19.14,7.39,22.83,21.36,1.5-13.76,9.2-20.36,21.2-22.88,1.9,12.37-8.28,24.86-20.94,26.11C617.47,621.5,607.17,610.63,606,595.76Z" transform="translate(-64.21 -344.21)"/><path d="M604.46,537.31c11.38.66,17.84,6.15,21.25,17.84.43-11.77,7.18-18,17.8-21,2.41,11.05-5.61,22.14-17.4,24.24C616.18,560.17,606.1,550.46,604.46,537.31Z" transform="translate(-64.21 -344.21)"/><path d="M647.27,563.22c1.55,12.48-6.21,23-17.34,24.5-10.64,1.43-19.89-7.22-21.83-20.44,8.71-1.79,17.74,5.62,21,17.23.81-3.13,1.09-6.53,2.57-9.27a24.32,24.32,0,0,1,6.56-7.51C640.78,565.77,644.07,564.75,647.27,563.22Z" transform="translate(-64.21 -344.21)"/><path d="M625.41,542c-10.51-5.28-14.2-16.95-9-27.88C626.85,519.41,630.56,530.65,625.41,542Z" transform="translate(-64.21 -344.21)"/><path d="M240.32,754.19c-10.62-14.31-6.5-28.19.75-37.56,11.83,9.3,14.34,29.88,3.59,40.11-11,10.43-27.85,12.26-42.73-2.55,5.92-4.09,12.26-6.69,19.38-6.92S234.55,750.17,240.32,754.19Z" transform="translate(-64.21 -344.21)"/><path d="M148.65,665.11c11.92-2.45,23.43-.21,31.48,13.4-3-13.78,2.69-23.34,14.43-30.58,3,8.37,3.78,16.39-.82,24.1-5.26,8.8-13,13.09-23.43,11.58C159.3,682,152.87,675.1,148.65,665.11Z" transform="translate(-64.21 -344.21)"/><path d="M138.44,630.06c14.29-.09,24.4,5.16,29.23,19.11-1.48-14.7,6-23.28,18.81-28.89,2,9.47.92,17.87-5.57,24.94-6.89,7.49-15.26,9.69-25,6.3C145.82,648,141,640.3,138.44,630.06Z" transform="translate(-64.21 -344.21)"/><path d="M162.32,696c13.23-3.64,24-1.46,32.5,9.78-4.14-13.52,1.19-23.21,11.63-31.41,4.05,8.84,5.45,17.39.62,26.15C201.79,710,193.47,713.34,183,712,173.17,710.78,167.26,704.48,162.32,696Z" transform="translate(-64.21 -344.21)"/><path d="M181.51,726.54c11.45-5.63,23.31-5.84,34.09,5.41-2.43-5.6-4.59-11.2-3.3-17.5s4.57-11.32,9.08-16.22c5.54,8,8.17,16.27,4.79,25.65S216.28,738.07,206.5,739C195.6,739.94,187.85,734.89,181.51,726.54Z" transform="translate(-64.21 -344.21)"/><path d="M160.59,616.53c2.75-11.18,9-16.87,22.16-19-.49,8.51-2.94,15.83-10.34,20.75-7.88,5.23-15.76,5.09-23.65,0s-10.16-13-10.5-22.15c5.8,1.2,11.18,2.88,14.62,7.19C156.15,607.37,158.25,612.4,160.59,616.53Z" transform="translate(-64.21 -344.21)"/><path d="M180.56,568.63c-.76,12.67-10.34,22.49-21.07,21.09-9.56-1.24-19.55-8.68-18.14-23.78,10.27,1.21,16.61,8.49,18.16,20.89C161.76,575.34,169.22,570,180.56,568.63Z" transform="translate(-64.21 -344.21)"/><path d="M145.06,536.43c10.24,1.51,15.86,8,18,20.73,4.27-12.24,11.2-18.08,21-17.7-.23,11.87-10.21,22-20.76,21C151.86,559.5,143.36,548.26,145.06,536.43Z" transform="translate(-64.21 -344.21)"/><path d="M163.52,544.12c-5.5-10.73-2.33-21,8.49-28.06C177.89,526.25,174.05,538.21,163.52,544.12Z" transform="translate(-64.21 -344.21)"/><path d="M393,480.66l-3.46.33v188.6A225.65,225.65,0,0,0,324.41,661,211.79,211.79,0,0,0,260,672.32c-.12-1.46-.25-2.39-.27-3.32q-1.15-63.4-2.3-126.81-.51-27.06-1.34-54.13c-.07-2.57.49-3.7,3.26-4.42,22.91-6,46-11,69.59-13.32,17.37-1.68,34.83-2.39,51.72,3.43,4.4,1.51,8.51,3.86,12.75,5.82Zm-21.64,158.9c-33.33-14.27-64.87-5.48-96.62,6,.79,1.93,1.4,3.42,2.07,5,30.43-10.82,60.61-19.55,92.33-6.06Zm0-20.36c-33.4-14.33-64.92-5.44-96.48,5.87.36,1.14.6,2.07.93,3,.24.66.59,1.27,1,2.15,30.22-10.73,60.51-19.61,92.26-6Zm-94.76-9.33c30.62-10.86,60.79-19.66,92.52-6.1l2.07-4.74c-25.85-12.38-58-9.23-96.32,5.91Zm.41-40.93c30.07-10.65,60.34-19.63,92.08-6l2.26-5c-33.35-14.25-65-5.46-96.55,5.94.53,1.52.93,2.78,1.4,4A4.81,4.81,0,0,0,277.08,568.94Zm94.39,9.47c-33.5-14.28-65-5.47-96.71,6l2.05,5c30.46-10.8,60.62-19.64,92.31-6.08C369.92,581.68,370.58,580.27,371.47,578.41Zm-.05-81.61c-33.52-14.13-65-5.44-96.58,6,.66,1.81,1.21,3.34,1.85,5.11,30.38-10.73,60.64-19.74,92.43-6.1C369.92,500,370.56,498.65,371.42,496.8Zm-94.71,31.47c30.33-10.71,60.59-19.74,92.46-6.08l2.12-4.94a87.29,87.29,0,0,0-42-7.31c-18.89,1.16-36.79,6.59-54.44,13.34C275.52,525.12,276.07,526.56,276.71,528.27ZM371.22,538c-18-12.13-67-9.13-96.28,5.84l1.76,4.83c30.43-10.79,60.69-19.74,92.45-6.11Z" transform="translate(-64.21 -344.21)"/><path d="M398.68,481.08l-4-.6a86.33,86.33,0,0,1,29.55-11.13c20.9-3.73,41.15.08,61.22,5.41,13.39,3.56,26.64,7.67,40,11.46,2.15.61,3,1.55,3,4q.16,89.4.5,178.79c0,1-.12,1.89-.23,3.43-43.24-9.48-86.38-13.51-130.06-1.84ZM510.13,645.47c-31.81-11.39-63.34-20.21-96.52-5.86l2.2,4.85a43.34,43.34,0,0,1,4.51-1.6c6.78-1.64,13.5-3.81,20.38-4.65,15.72-1.93,31,1,46.07,5.39,7.13,2.1,14.18,4.5,21.4,6.81a17.76,17.76,0,0,0,.85-1.68C509.37,647.84,509.64,646.93,510.13,645.47Zm.06-61.15c-31.86-11.41-63.4-20.22-96.55-5.9.63,1.46,1,2.47,1.51,3.44a7.57,7.57,0,0,0,.77,1.12,3.17,3.17,0,0,0,.77,0c.68-.24,1.35-.52,2-.78,11.21-4.28,22.88-6.76,34.76-5.58,11.23,1.11,22.37,3.46,33.4,5.93,7.23,1.62,14.19,4.42,21.52,6.78Zm-.06,40.78c-31.75-11.4-63.32-20.25-96.57-5.86.9,1.82,1.64,3.31,2.34,4.74,3.47-1.19,6.63-2.4,9.85-3.35,18.7-5.53,37.3-3.79,55.76,1.18,8.93,2.4,17.71,5.34,26.92,8.16ZM510,544c-26.46-14.94-76.75-18.09-96.28-6l2.2,4.48,4-1.47a84.76,84.76,0,0,1,34.83-5.25,152.06,152.06,0,0,1,37.15,7.39c5.45,1.74,10.86,3.6,16.5,5.48Zm-94.15,59.72,4.56-1.69a83.9,83.9,0,0,1,32.71-5.12,134.32,134.32,0,0,1,33.76,6c7.11,2.17,14.17,4.5,21.35,6.78.42-.93.82-1.67,1.08-2.45s.39-1.56.62-2.55c-31.61-11.33-63.12-20.13-96.33-5.83C414.41,600.52,415.11,602,415.87,603.67Zm.17-40.89c.9-.32,1.68-.57,2.45-.88A84.14,84.14,0,0,1,450.68,556a132.46,132.46,0,0,1,36.3,6c7.11,2.13,14.14,4.51,21.3,6.81.42-1,.79-1.74,1.07-2.51s.41-1.38.73-2.48C478.51,552.56,447,543.72,413.7,558c.52,1.27.88,2.27,1.32,3.24A14.71,14.71,0,0,0,416,562.78Zm-.12-40.55c21.63-9.41,43.27-8.3,65-2.58,9.16,2.41,18.15,5.49,27.54,8.36.53-1.5,1.07-3,1.71-4.86-31.74-11.45-63.31-20.16-96.57-5.92Zm0-20.44c12.46-5.25,25.06-8,38-6.71,11.23,1.1,22.38,3.5,33.42,6,7.11,1.6,13.95,4.38,21,6.65.42-1,.79-1.72,1.07-2.5s.43-1.53.69-2.52c-31.7-11.38-63.21-20.07-96.42-5.86Z" transform="translate(-64.21 -344.21)"/><path d="M255.57,678.16c8.23-2.4,15.68-4.8,23.24-6.73A199.17,199.17,0,0,1,349,666.31,227,227,0,0,1,392.17,675a11.43,11.43,0,0,0,5.92.11A227,227,0,0,1,467.45,668c20.8,1,41.27,4.52,61.6,8.88,1.17.25,2.35.4,4,.68V509.2c7.41,0,13.3,4.92,14.34,11.9a36.45,36.45,0,0,1,.43,5.42q0,68.16,0,136.31c0,9.24-4,15-11.8,16.83a18.87,18.87,0,0,1-4.32.35H256.9c-9.12,0-15-5.4-15.86-14.46a32.38,32.38,0,0,1-.09-3.27q0-67.6.08-135.22a30.06,30.06,0,0,1,2-10.52c1.45-3.72,4.8-5.86,9.15-7.17C253.32,565.75,254.44,621.77,255.57,678.16Z" transform="translate(-64.21 -344.21)"/><path class="cls-1" d="M371.39,639.56l-2.22,5c-31.72-13.49-61.9-4.76-92.33,6.06-.67-1.62-1.28-3.11-2.07-5C306.52,634.08,338.06,625.29,371.39,639.56Z" transform="translate(-64.21 -344.21)"/><path class="cls-1" d="M371.43,619.2l-2.27,4.94c-31.75-13.57-62-4.69-92.26,6-.43-.88-.78-1.49-1-2.15-.33-.89-.57-1.82-.93-3C306.51,613.76,338,604.87,371.43,619.2Z" transform="translate(-64.21 -344.21)"/><path class="cls-1" d="M276.67,609.87l-1.73-4.93c38.34-15.14,70.47-18.29,96.32-5.91l-2.07,4.74C337.46,590.21,307.29,599,276.67,609.87Z" transform="translate(-64.21 -344.21)"/><path class="cls-1" d="M277.08,568.94a4.81,4.81,0,0,1-.81-1c-.47-1.24-.87-2.5-1.4-4,31.59-11.4,63.2-20.19,96.55-5.94l-2.26,5C337.42,549.31,307.15,558.29,277.08,568.94Z" transform="translate(-64.21 -344.21)"/><path class="cls-1" d="M371.47,578.41c-.89,1.86-1.55,3.27-2.35,4.94-31.69-13.56-61.85-4.72-92.31,6.08l-2.05-5C306.44,572.94,338,564.13,371.47,578.41Z" transform="translate(-64.21 -344.21)"/><path class="cls-1" d="M371.42,496.8c-.86,1.85-1.5,3.24-2.3,5-31.79-13.64-62.05-4.63-92.43,6.1-.64-1.77-1.19-3.3-1.85-5.11C306.41,491.36,337.9,482.67,371.42,496.8Z" transform="translate(-64.21 -344.21)"/><path class="cls-1" d="M276.71,528.27c-.64-1.71-1.19-3.15-1.88-5,17.65-6.75,35.55-12.18,54.44-13.34a87.29,87.29,0,0,1,42,7.31l-2.12,4.94C337.3,508.53,307,517.56,276.71,528.27Z" transform="translate(-64.21 -344.21)"/><path class="cls-1" d="M371.22,538l-2.07,4.56c-31.76-13.63-62-4.68-92.45,6.11l-1.76-4.83C304.21,528.88,353.18,525.88,371.22,538Z" transform="translate(-64.21 -344.21)"/><path class="cls-1" d="M510.13,645.47c-.49,1.46-.76,2.37-1.11,3.26a17.76,17.76,0,0,1-.85,1.68c-7.22-2.31-14.27-4.71-21.4-6.81-15-4.42-30.35-7.32-46.07-5.39-6.88.84-13.6,3-20.38,4.65a43.34,43.34,0,0,0-4.51,1.6l-2.2-4.85C446.79,625.26,478.32,634.08,510.13,645.47Z" transform="translate(-64.21 -344.21)"/><path class="cls-1" d="M510.19,584.32l-1.8,5c-7.33-2.36-14.29-5.16-21.52-6.78-11-2.47-22.17-4.82-33.4-5.93-11.88-1.18-23.55,1.3-34.76,5.58-.67.26-1.34.54-2,.78a3.17,3.17,0,0,1-.77,0,7.57,7.57,0,0,1-.77-1.12c-.47-1-.88-2-1.51-3.44C446.79,564.1,478.33,572.91,510.19,584.32Z" transform="translate(-64.21 -344.21)"/><path class="cls-1" d="M510.13,625.1l-1.7,4.87c-9.21-2.82-18-5.76-26.92-8.16-18.46-5-37.06-6.71-55.76-1.18-3.22,1-6.38,2.16-9.85,3.35-.7-1.43-1.44-2.92-2.34-4.74C446.81,604.85,478.38,613.7,510.13,625.1Z" transform="translate(-64.21 -344.21)"/><path class="cls-1" d="M510,544l-1.63,4.66c-5.64-1.88-11.05-3.74-16.5-5.48a152.06,152.06,0,0,0-37.15-7.39A84.76,84.76,0,0,0,419.91,541l-4,1.47-2.2-4.48C433.27,525.86,483.56,529,510,544Z" transform="translate(-64.21 -344.21)"/><path class="cls-1" d="M415.87,603.67c-.76-1.65-1.46-3.15-2.25-4.87,33.21-14.3,64.72-5.5,96.33,5.83-.23,1-.36,1.79-.62,2.55s-.66,1.52-1.08,2.45c-7.18-2.28-14.24-4.61-21.35-6.78a134.32,134.32,0,0,0-33.76-6A83.9,83.9,0,0,0,420.43,602Z" transform="translate(-64.21 -344.21)"/><path class="cls-1" d="M416,562.78a14.71,14.71,0,0,1-1-1.57c-.44-1-.8-2-1.32-3.24,33.27-14.25,64.81-5.41,96.38,5.92-.32,1.1-.48,1.8-.73,2.48s-.65,1.52-1.07,2.51c-7.16-2.3-14.19-4.68-21.3-6.81a132.46,132.46,0,0,0-36.3-6,84.14,84.14,0,0,0-32.19,5.87C417.72,562.21,416.94,562.46,416,562.78Z" transform="translate(-64.21 -344.21)"/><path class="cls-1" d="M415.92,522.23l-2.34-5c33.26-14.24,64.83-5.53,96.57,5.92-.64,1.83-1.18,3.36-1.71,4.86-9.39-2.87-18.38-6-27.54-8.36C459.19,513.93,437.55,512.82,415.92,522.23Z" transform="translate(-64.21 -344.21)"/><path class="cls-1" d="M415.88,501.79l-2.27-5c33.21-14.21,64.72-5.52,96.42,5.86-.26,1-.43,1.77-.69,2.52s-.65,1.53-1.07,2.5c-7.06-2.27-13.9-5-21-6.65-11-2.48-22.19-4.88-33.42-6C440.94,493.81,428.34,496.54,415.88,501.79Z" transform="translate(-64.21 -344.21)"/></svg>