<?xml version="1.0" encoding="utf-8"?>
<!-- Generator: Adobe Illustrator 18.0.0, SVG Export Plug-In . SVG Version: 6.00 Build 0)  -->
<!DOCTYPE svg PUBLIC "-//W3C//DTD SVG 1.1//EN" "http://www.w3.org/Graphics/SVG/1.1/DTD/svg11.dtd">
<svg version="1.1" id="Layer_1" xmlns="http://www.w3.org/2000/svg" xmlns:xlink="http://www.w3.org/1999/xlink" x="0px" y="0px"
	 viewBox="0 0 1000 1000" enable-background="new 0 0 1000 1000" xml:space="preserve">
<g>
	<path fill="#FFFFFF" d="M652.6,516.8c-8.5,0-15.8,3-21.8,9c-6,6-9,13.3-9,21.8s3,15.8,9,21.8c6,6,13.3,9,21.8,9
		c8.5,0,15.8-3,21.8-9c6-6,9-13.3,9-21.8s-3-15.8-9-21.8C668.4,519.8,661.1,516.8,652.6,516.8z"/>
	<path fill="#FFFFFF" d="M326,587.9c17,17,37.5,25.5,61.5,25.5c24,0,44.5-8.4,61.4-25.3c16.9-16.9,25.3-37.4,25.3-61.4
		s-8.5-44.5-25.3-61.5c-16.9-17-37.4-25.5-61.4-25.5c-24,0-44.5,8.5-61.5,25.5c-14.5,14.5-22.8,31.4-24.9,51v11.1
		c0,1.8-0.1,3.5-0.3,5.3C302,554,310.4,572.5,326,587.9z"/>
	<path fill="#FFFFFF" d="M755.7,525.8c-6,6-9,13.3-9,21.8s3,15.8,9,21.8c6,6,13.3,9,21.8,9c8.5,0,15.8-3,21.8-9c6-6,9-13.3,9-21.8
		s-3-15.8-9-21.8c-6-6-13.3-9-21.8-9C769.1,516.8,761.8,519.8,755.7,525.8z"/>
	<path fill="#FFFFFF" d="M814.3,626c-10.1,10.1-22.4,15.2-36.7,15.2h-0.4c-2.9,0-5.4-1-7.5-3.1s-3.1-4.6-3.1-7.5s1-5.4,3.1-7.5
		s4.6-3.1,7.5-3.1c0.5,0,1,0,1.5,0.1c8-0.3,15-3.3,20.8-9c5.9-6,8.9-13.1,8.9-21.4c-8.9,6.7-19.1,10-30.8,10
		c-14.4,0-26.6-5.1-36.7-15.2c-10.1-10.1-15.2-22.4-15.2-36.7s5.1-26.6,15.2-36.7c10.1-10.1,22.4-15.2,36.7-15.2
		c14.4,0,26.6,5.1,36.7,15.2c10.1,10.1,15.2,22.3,15.2,36.6h0.1v32.8c7.2-28.1,11-57.6,11-88c0-195.1-158.1-353.2-353.2-353.2
		c-68.4,0-132.2,19.4-186.2,53v179h-0.1v37.1c25-18.8,53.8-28.1,86.4-28.1c40.4,0,74.9,14.3,103.4,42.8
		c28.5,28.5,42.8,63,42.8,103.4c0,40.4-14.3,74.9-42.8,103.4c-28.5,28.5-63,42.8-103.4,42.8c-40.4,0-74.9-14.3-103.4-42.8
		c-28.1-28.1-42.4-62.1-42.8-102V371.3h0V239.1c-66,64.2-107.1,153.9-107.1,253.3c0,195.1,158.1,353.2,353.2,353.2
		c147.9,0,274.6-91,327.2-220C814.5,625.7,814.4,625.9,814.3,626z M580.2,589c0,2.9-1,5.4-3.1,7.5s-4.6,3.1-7.5,3.1s-5.4-1-7.5-3.1
		s-3.1-4.6-3.1-7.5V475.6c0-2.9,1-5.4,3.1-7.5s4.6-3.1,7.5-3.1s5.4,1,7.5,3.1s3.1,4.6,3.1,7.5V589z M689.3,584.4
		c-10.1,10.1-22.4,15.2-36.7,15.2c-14.4,0-26.6-5.1-36.7-15.2c-10.1-10.1-15.2-22.4-15.2-36.7s5.1-26.6,15.2-36.7
		c10.1-10.1,22.4-15.2,36.7-15.2c14.4,0,26.6,5.1,36.7,15.2c10.1,10.1,15.2,22.4,15.2,36.7S699.4,574.3,689.3,584.4z"/>
</g>
<g>
</g>
<g>
</g>
<g>
</g>
<g>
</g>
<g>
</g>
<g>
</g>
</svg>
